<?xml version="1.0" encoding="UTF-8" standalone="no"?><svg xmlns:svg="http://www.w3.org/2000/svg" xmlns="http://www.w3.org/2000/svg" version="1.1" style="overflow:visible" viewBox="-250 -250 500 500" height="2000px" width="2000px"><rect fill-opacity="0" fill="rgb(0,0,0)" height="500" width="500" y="-250" x="-250" /><svg version="1.1" y="-250" x="-250" viewBox="-250 -250 500 500" height="500px" width="500px" style="overflow:visible"><g transform="rotate(0,0,0)" stroke-linejoin="round" fill="#fff"><path stroke-linecap="butt" stroke-linejoin="round" stroke="none" fill="rgb(68,68,68)" d="m0.36-173.175c-3.8637 0.0582-6.9496 3.2359-6.8945 7.0996v247.64c-16.686-14.074-44.095-14.574-67.234-1.2266c-28.699 16.568-41.218 48.612-27.963 71.57s47.265 28.138 75.963 11.568c20.318-11.755 33.28-31.907 33.176-51.574l0.0312-148.66c0.009 0.0134 0.0179 0.0276 0.0273 0.041c21.554 7.6806 61.258 23.803 80.404 50.523c16.538 23.081 5.6602 60.247-33.725 85.906c-3.4658 2.721-0.40358 6.561 4.9492 4.1348c0 0 37.115-24.813 45.041-54.023c5.4247-19.991 2.9227-37.151-5.0625-52.402c2.1576-3.9624 3.9207-8.0715 5.0625-12.279c12.41-45.733-16.662-76.645-57.971-103.79c-32.464-21.335-38.699-43.943-38.699-47.428c0.0562-3.9464-3.1592-7.1591-7.1055-7.0996zm7.166 71.801c21.567 7.6888 61.215 23.807 80.344 50.504c7.6557 10.684 9.4192 24.386 5.2109 38.568c-10.975-15.464-27.607-28.976-46.916-41.666c-30.881-20.295-38.015-42.304-38.639-47.406z" /></g></svg></svg>